{
    "asset" : {
        "generator" : "Khronos glTF Blender I/O v1.4.40",
        "version" : "2.0"
    },
    "scene" : 0,
    "scenes" : [
        {
            "name" : "Scene",
            "nodes" : [
                0,
                3,
                4
            ]
        }
    ],
    "nodes" : [
        {
            "mesh" : 0,
            "name" : "Wall",
            "scale" : [
                2,
                1.7000000476837158,
                3
            ],
            "translation" : [
                12,
                0,
                18
            ]
        },
        {
            "mesh" : 1,
            "name" : "Bottom Panel"
        },
        {
            "mesh" : 2,
            "name" : "Top Panel"
        },
        {
            "children" : [
                1,
                2
            ],
            "mesh" : 3,
            "name" : "Base",
            "rotation" : [
                0.653281569480896,
                0.27059802412986755,
                -0.27059805393218994,
                0.6532814502716064
            ],
            "translation" : [
                6,
                2.285529136657715,
                6
            ]
        },
        {
            "mesh" : 4,
            "name" : "Floor",
            "scale" : [
                2,
                1.7000000476837158,
                3
            ],
            "translation" : [
                12,
                6,
                18
            ]
        }
    ],
    "meshes" : [
        {
            "name" : "Floor",
            "primitives" : [
                {
                    "attributes" : {
                        "POSITION" : 0,
                        "NORMAL" : 1,
                        "TEXCOORD_0" : 2
                    },
                    "indices" : 3
                }
            ]
        },
        {
            "name" : "BottomPanel",
            "primitives" : [
                {
                    "attributes" : {
                        "POSITION" : 4,
                        "NORMAL" : 5,
                        "TEXCOORD_0" : 6
                    },
                    "indices" : 7
                }
            ]
        },
        {
            "name" : "TopPanel",
            "primitives" : [
                {
                    "attributes" : {
                        "POSITION" : 8,
                        "NORMAL" : 9,
                        "TEXCOORD_0" : 10
                    },
                    "indices" : 11
                }
            ]
        },
        {
            "name" : "Base",
            "primitives" : [
                {
                    "attributes" : {
                        "POSITION" : 12,
                        "NORMAL" : 13,
                        "TEXCOORD_0" : 14
                    },
                    "indices" : 15
                }
            ]
        },
        {
            "name" : "Floor.001",
            "primitives" : [
                {
                    "attributes" : {
                        "POSITION" : 16,
                        "NORMAL" : 17,
                        "TEXCOORD_0" : 18
                    },
                    "indices" : 19
                }
            ]
        }
    ],
    "accessors" : [
        {
            "bufferView" : 0,
            "componentType" : 5126,
            "count" : 48,
            "max" : [
                6,
                12,
                6
            ],
            "min" : [
                -6,
                0,
                -6
            ],
            "type" : "VEC3"
        },
        {
            "bufferView" : 1,
            "componentType" : 5126,
            "count" : 48,
            "type" : "VEC3"
        },
        {
            "bufferView" : 2,
            "componentType" : 5126,
            "count" : 48,
            "type" : "VEC2"
        },
        {
            "bufferView" : 3,
            "componentType" : 5123,
            "count" : 72,
            "type" : "SCALAR"
        },
        {
            "bufferView" : 4,
            "componentType" : 5126,
            "count" : 73561,
            "max" : [
                0.8523010015487671,
                1.0507999658584595,
                0.8523010015487671
            ],
            "min" : [
                -0.8523010015487671,
                0.9769420027732849,
                -0.8523010015487671
            ],
            "type" : "VEC3"
        },
        {
            "bufferView" : 5,
            "componentType" : 5126,
            "count" : 73561,
            "type" : "VEC3"
        },
        {
            "bufferView" : 6,
            "componentType" : 5126,
            "count" : 73561,
            "type" : "VEC2"
        },
        {
            "bufferView" : 7,
            "componentType" : 5125,
            "count" : 116736,
            "type" : "SCALAR"
        },
        {
            "bufferView" : 8,
            "componentType" : 5126,
            "count" : 74295,
            "max" : [
                0.4023190140724182,
                1.019070029258728,
                -0.9910690188407898
            ],
            "min" : [
                -0.4023190140724182,
                0.9842060208320618,
                -1.7957079410552979
            ],
            "type" : "VEC3"
        },
        {
            "bufferView" : 9,
            "componentType" : 5126,
            "count" : 74295,
            "type" : "VEC3"
        },
        {
            "bufferView" : 10,
            "componentType" : 5126,
            "count" : 74295,
            "type" : "VEC2"
        },
        {
            "bufferView" : 11,
            "componentType" : 5125,
            "count" : 116736,
            "type" : "SCALAR"
        },
        {
            "bufferView" : 12,
            "componentType" : 5126,
            "count" : 40006,
            "max" : [
                1,
                1,
                1.4072760343551636
            ],
            "min" : [
                -1,
                -1,
                -2.0411880016326904
            ],
            "type" : "VEC3"
        },
        {
            "bufferView" : 13,
            "componentType" : 5126,
            "count" : 40006,
            "type" : "VEC3"
        },
        {
            "bufferView" : 14,
            "componentType" : 5126,
            "count" : 40006,
            "type" : "VEC2"
        },
        {
            "bufferView" : 15,
            "componentType" : 5123,
            "count" : 230400,
            "type" : "SCALAR"
        },
        {
            "bufferView" : 16,
            "componentType" : 5126,
            "count" : 24,
            "max" : [
                6,
                -3.029411554336548,
                6
            ],
            "min" : [
                -6,
                -3.529411554336548,
                -6
            ],
            "type" : "VEC3"
        },
        {
            "bufferView" : 17,
            "componentType" : 5126,
            "count" : 24,
            "type" : "VEC3"
        },
        {
            "bufferView" : 18,
            "componentType" : 5126,
            "count" : 24,
            "type" : "VEC2"
        },
        {
            "bufferView" : 19,
            "componentType" : 5123,
            "count" : 36,
            "type" : "SCALAR"
        }
    ],
    "bufferViews" : [
        {
            "buffer" : 0,
            "byteLength" : 576,
            "byteOffset" : 0
        },
        {
            "buffer" : 0,
            "byteLength" : 576,
            "byteOffset" : 576
        },
        {
            "buffer" : 0,
            "byteLength" : 384,
            "byteOffset" : 1152
        },
        {
            "buffer" : 0,
            "byteLength" : 144,
            "byteOffset" : 1536
        },
        {
            "buffer" : 0,
            "byteLength" : 882732,
            "byteOffset" : 1680
        },
        {
            "buffer" : 0,
            "byteLength" : 882732,
            "byteOffset" : 884412
        },
        {
            "buffer" : 0,
            "byteLength" : 588488,
            "byteOffset" : 1767144
        },
        {
            "buffer" : 0,
            "byteLength" : 466944,
            "byteOffset" : 2355632
        },
        {
            "buffer" : 0,
            "byteLength" : 891540,
            "byteOffset" : 2822576
        },
        {
            "buffer" : 0,
            "byteLength" : 891540,
            "byteOffset" : 3714116
        },
        {
            "buffer" : 0,
            "byteLength" : 594360,
            "byteOffset" : 4605656
        },
        {
            "buffer" : 0,
            "byteLength" : 466944,
            "byteOffset" : 5200016
        },
        {
            "buffer" : 0,
            "byteLength" : 480072,
            "byteOffset" : 5666960
        },
        {
            "buffer" : 0,
            "byteLength" : 480072,
            "byteOffset" : 6147032
        },
        {
            "buffer" : 0,
            "byteLength" : 320048,
            "byteOffset" : 6627104
        },
        {
            "buffer" : 0,
            "byteLength" : 460800,
            "byteOffset" : 6947152
        },
        {
            "buffer" : 0,
            "byteLength" : 288,
            "byteOffset" : 7407952
        },
        {
            "buffer" : 0,
            "byteLength" : 288,
            "byteOffset" : 7408240
        },
        {
            "buffer" : 0,
            "byteLength" : 192,
            "byteOffset" : 7408528
        },
        {
            "buffer" : 0,
            "byteLength" : 72,
            "byteOffset" : 7408720
        }
    ],
    "buffers" : [
        {
            "byteLength" : 7408792,
            "uri" : "room.bin"
        }
    ]
}
